<svg id="Layer_1" data-name="Layer 1" xmlns="http://www.w3.org/2000/svg" viewBox="0 0 985 325"><defs><style>.cls-1{fill:#00a99e;}</style></defs><title>new_logo</title><path d="M171.49,248.81q-6.13,10.35-18.18,16.6T124,271.66q-17.06,0-30.47-5.8A51.37,51.37,0,0,1,72,249.15a48,48,0,0,1-9.21-25.46h34.1a26,26,0,0,0,7.85,16.25q6.69,6.48,17.84,6.48,10,0,15.35-5.34t5.34-13.76A18,18,0,0,0,139,214.93a31.66,31.66,0,0,0-10.91-7.84q-6.6-3-18.19-6.82a178.85,178.85,0,0,1-24.55-9.89,45.32,45.32,0,0,1-16.26-14.21q-6.7-9.31-6.71-24.33,0-20.68,14.89-32.62t39.45-11.94q25.47,0,40.59,12.28t17.16,32.74H139.89a24.06,24.06,0,0,0-7.27-14.21c-4-3.72-9.32-5.57-16.15-5.57q-8.86,0-14.32,4.66T96.69,150.7a16.78,16.78,0,0,0,4.21,11.71A32,32,0,0,0,111.59,170a174.08,174.08,0,0,0,17.62,6.59,233.44,233.44,0,0,1,25.12,10.24,44.14,44.14,0,0,1,16.48,14.32q6.83,9.54,6.82,25A43.47,43.47,0,0,1,171.49,248.81Z"/><path d="M355.88,144.11v126H323.82V244.6a40.15,40.15,0,0,1-16.48,19.9,49,49,0,0,1-26.49,7.16q-21.83,0-34.78-14.32t-13-40V144.11h31.83v69.57q0,15,7.73,23.31t20.92,8.3q13.86,0,22.05-8.87T323.82,211V144.11Z"/><path d="M925.64,144.11v126H893.58V244.6a40.2,40.2,0,0,1-16.48,19.9,49.07,49.07,0,0,1-26.49,7.16q-21.83,0-34.79-14.32t-13-40V144.11h31.83v69.57q0,15,7.73,23.31t20.92,8.3q13.88,0,22.06-8.87T893.58,211V144.11Z"/><path class="cls-1" d="M656.78,127.49A59.34,59.34,0,0,1,618.43,183l-5-13.1a45.34,45.34,0,1,0-32.05,0L576.47,183a59.33,59.33,0,1,1,80.31-55.5Z"/><polygon points="515.55 161.81 525.97 149.47 530.49 144.11 524.54 144.11 510.23 144.11 492.52 144.11 451.14 196.4 451.14 101.82 419.08 101.82 419.08 270.07 451.14 270.07 451.14 215.05 492.75 270.07 531.86 270.07 477.52 206.86 515.55 161.81"/><path d="M597.45,99.22a28.27,28.27,0,0,0-10,54.71A26.31,26.31,0,0,0,591,155V271.66h13V155a25.74,25.74,0,0,0,3.5-1.06,28.27,28.27,0,0,0-10-54.71Zm5,41.61a14.27,14.27,0,1,1,9.22-13.34A14.31,14.31,0,0,1,602.49,140.83Z"/><path d="M727.38,149.22a52.79,52.79,0,0,0-18.64,19v-24.1H676.68v126h32.06V209.36q0-32.75,35.24-32.74h9.32V142.29A49.55,49.55,0,0,0,727.38,149.22Z"/><path class="cls-1" d="M686.22,127.49h-14a74.78,74.78,0,1,0-149.55,0h-14a88.78,88.78,0,1,1,177.55,0Z"/></svg>