<svg id="Layer_1" data-name="Layer 1" xmlns="http://www.w3.org/2000/svg" viewBox="0 0 985 325"><defs><style>.cls-1{fill:#fff;}.cls-2{fill:#00a99e;}</style></defs><title>new_logo</title><path class="cls-1" d="M230.76,238.8A35.82,35.82,0,0,1,216,252.27q-9.8,5.09-23.82,5.08a61.73,61.73,0,0,1-24.73-4.71A41.79,41.79,0,0,1,150,239.07a39.12,39.12,0,0,1-7.48-20.67h27.7a21.1,21.1,0,0,0,6.37,13.2q5.43,5.25,14.49,5.26,8.12,0,12.46-4.34a15.12,15.12,0,0,0,4.34-11.17,14.68,14.68,0,0,0-3.51-10.06,25.55,25.55,0,0,0-8.86-6.37q-5.35-2.4-14.77-5.54a144.77,144.77,0,0,1-19.94-8,36.75,36.75,0,0,1-13.2-11.54q-5.44-7.56-5.44-19.75,0-16.8,12.09-26.49t32-9.69q20.67,0,32.95,10t13.94,26.58H205.1a19.56,19.56,0,0,0-5.91-11.54q-4.8-4.51-13.11-4.52-7.2,0-11.63,3.78t-4.43,11a13.67,13.67,0,0,0,3.42,9.51,26.07,26.07,0,0,0,8.67,6.18,140.66,140.66,0,0,0,14.31,5.35,192.31,192.31,0,0,1,20.4,8.31,36,36,0,0,1,13.38,11.63q5.55,7.75,5.54,20.31A35.39,35.39,0,0,1,230.76,238.8Z"/><path class="cls-1" d="M380.47,153.78V256.06h-26V235.38a32.55,32.55,0,0,1-13.38,16.15,39.77,39.77,0,0,1-21.51,5.82q-17.71,0-28.24-11.63t-10.53-32.49V153.78h25.85v56.49q0,12.19,6.28,18.93t17,6.74q11.26,0,17.91-7.2t6.64-20.68V153.78Z"/><path class="cls-1" d="M843.1,153.78V256.06h-26V235.38a32.51,32.51,0,0,1-13.39,16.15,39.73,39.73,0,0,1-21.5,5.82q-17.73,0-28.25-11.63t-10.52-32.49V153.78h25.84v56.49q0,12.19,6.28,18.93t17,6.74q11.26,0,17.91-7.2t6.65-20.68V153.78Z"/><path class="cls-2" d="M624.79,140.29a48.17,48.17,0,0,1-31.14,45.06l-4-10.63a36.82,36.82,0,1,0-26,0l-4,10.64a48.17,48.17,0,1,1,65.21-45.06Z"/><polygon class="cls-1" points="510.12 168.16 518.58 158.14 522.25 153.78 517.42 153.78 505.8 153.78 491.42 153.78 457.82 196.24 457.82 119.45 431.79 119.45 431.79 256.06 457.82 256.06 457.82 211.39 491.61 256.06 523.36 256.06 479.24 204.74 510.12 168.16"/><path class="cls-1" d="M576.62,117.34a23,23,0,0,0-8.12,44.42,20.86,20.86,0,0,0,2.85.86v94.73h10.54V162.62a21.15,21.15,0,0,0,2.84-.86,23,23,0,0,0-8.11-44.42Zm4.09,33.78a11.58,11.58,0,1,1,7.49-10.83A11.55,11.55,0,0,1,580.71,151.12Z"/><path class="cls-1" d="M682.12,157.93A42.89,42.89,0,0,0,667,173.35V153.79H641V256.06h26V206.77q0-26.6,28.62-26.59h7.56V152.31A40.21,40.21,0,0,0,682.12,157.93Z"/><path class="cls-2" d="M648.7,140.29H637.33a60.72,60.72,0,1,0-121.43,0H504.53a72.09,72.09,0,1,1,144.17,0Z"/></svg>